<svg xmlns="http://www.w3.org/2000/svg" width="1200" height="630" viewBox="0 0 1200 630" role="img" aria-labelledby="title description">
  <title id="title">Matheus Ferraroni Sanches — CTO, Professor and AI Researcher</title>
  <desc id="description">Social card in deep blue tones with cyan and amber accents and a subtle particle network.</desc>
  <defs>
    <linearGradient id="background" x1="60" y1="32" x2="1140" y2="598" gradientUnits="userSpaceOnUse">
      <stop stop-color="#07111F"/>
      <stop offset="0.52" stop-color="#0A1B30"/>
      <stop offset="1" stop-color="#102A46"/>
    </linearGradient>
    <radialGradient id="cyan-glow" cx="0" cy="0" r="1" gradientTransform="translate(1032 116) rotate(137) scale(452 338)" gradientUnits="userSpaceOnUse">
      <stop stop-color="#22D3EE" stop-opacity="0.25"/>
      <stop offset="1" stop-color="#22D3EE" stop-opacity="0"/>
    </radialGradient>
    <radialGradient id="amber-glow" cx="0" cy="0" r="1" gradientTransform="translate(173 608) rotate(-38) scale(417 268)" gradientUnits="userSpaceOnUse">
      <stop stop-color="#F59E0B" stop-opacity="0.16"/>
      <stop offset="1" stop-color="#F59E0B" stop-opacity="0"/>
    </radialGradient>
    <linearGradient id="accent-line" x1="88" y1="0" x2="512" y2="0" gradientUnits="userSpaceOnUse">
      <stop stop-color="#22D3EE"/>
      <stop offset="0.62" stop-color="#38BDF8"/>
      <stop offset="1" stop-color="#F59E0B"/>
    </linearGradient>
    <pattern id="dot-grid" width="36" height="36" patternUnits="userSpaceOnUse">
      <circle cx="2" cy="2" r="1.2" fill="#BAE6FD" fill-opacity="0.075"/>
    </pattern>
    <filter id="soft-glow" x="-100%" y="-100%" width="300%" height="300%">
      <feGaussianBlur stdDeviation="6" result="blur"/>
      <feMerge>
        <feMergeNode in="blur"/>
        <feMergeNode in="SourceGraphic"/>
      </feMerge>
    </filter>
  </defs>

  <rect width="1200" height="630" fill="url(#background)"/>
  <rect width="1200" height="630" fill="url(#cyan-glow)"/>
  <rect width="1200" height="630" fill="url(#amber-glow)"/>
  <rect width="1200" height="630" fill="url(#dot-grid)"/>

  <g fill="none" stroke="#67E8F9" stroke-linecap="round" stroke-width="1.25">
    <path d="M745 95 858 143 966 77 1086 156 1135 260" stroke-opacity="0.22"/>
    <path d="M858 143 903 247 1019 284 1086 156" stroke-opacity="0.16"/>
    <path d="M745 95 707 195 807 286 903 247" stroke-opacity="0.13"/>
    <path d="M966 77 1019 284 1135 260" stroke-opacity="0.1"/>
    <path d="M807 286 889 369 1019 284 1112 390" stroke-opacity="0.13"/>
  </g>
  <g fill="#A5F3FC">
    <circle cx="745" cy="95" r="4" fill-opacity="0.54"/>
    <circle cx="858" cy="143" r="5" fill-opacity="0.68" filter="url(#soft-glow)"/>
    <circle cx="966" cy="77" r="3.5" fill-opacity="0.47"/>
    <circle cx="1086" cy="156" r="4" fill-opacity="0.58"/>
    <circle cx="1135" cy="260" r="3" fill-opacity="0.42"/>
    <circle cx="707" cy="195" r="3" fill-opacity="0.4"/>
    <circle cx="807" cy="286" r="4" fill-opacity="0.45"/>
    <circle cx="903" cy="247" r="3" fill-opacity="0.36"/>
    <circle cx="1019" cy="284" r="5" fill-opacity="0.6" filter="url(#soft-glow)"/>
    <circle cx="889" cy="369" r="3.5" fill-opacity="0.38"/>
    <circle cx="1112" cy="390" r="3" fill-opacity="0.34"/>
  </g>
  <g fill="none" stroke="#FBBF24" stroke-linecap="round" stroke-width="1.2">
    <path d="M91 505 175 457 260 526 346 478 426 548" stroke-opacity="0.2"/>
    <path d="M175 457 217 573 346 478" stroke-opacity="0.12"/>
  </g>
  <g fill="#FBBF24">
    <circle cx="91" cy="505" r="3" fill-opacity="0.44"/>
    <circle cx="175" cy="457" r="4" fill-opacity="0.5"/>
    <circle cx="260" cy="526" r="3.5" fill-opacity="0.42"/>
    <circle cx="346" cy="478" r="4.5" fill-opacity="0.56" filter="url(#soft-glow)"/>
    <circle cx="426" cy="548" r="3" fill-opacity="0.38"/>
    <circle cx="217" cy="573" r="2.5" fill-opacity="0.32"/>
  </g>

  <rect x="32" y="32" width="1136" height="566" rx="28" fill="none" stroke="#BAE6FD" stroke-opacity="0.12"/>
  <rect x="64" y="64" width="56" height="56" rx="17" fill="#0E7490" fill-opacity="0.35" stroke="#67E8F9" stroke-opacity="0.65"/>
  <text x="92" y="101" fill="#ECFEFF" font-family="Arial, Helvetica, sans-serif" font-size="21" font-weight="700" text-anchor="middle" letter-spacing="0.8">MFS</text>
  <text x="1112" y="98" fill="#BAE6FD" fill-opacity="0.78" font-family="Arial, Helvetica, sans-serif" font-size="17" font-weight="600" text-anchor="end" letter-spacing="1.3">MATHEUSFERRARONI.COM</text>

  <rect x="88" y="236" width="424" height="5" rx="2.5" fill="url(#accent-line)"/>
  <text x="88" y="335" fill="#F8FAFC" font-family="Arial, Helvetica, sans-serif" font-size="63" font-weight="700" letter-spacing="-1.8">Matheus Ferraroni Sanches</text>
  <text x="91" y="401" fill="#CFFAFE" font-family="Arial, Helvetica, sans-serif" font-size="34" font-weight="500" letter-spacing="0.1">CTO · Professor · AI Researcher</text>

  <g transform="translate(88 551)">
    <circle cx="5" cy="0" r="5" fill="#22D3EE"/>
    <circle cx="25" cy="0" r="5" fill="#38BDF8" fill-opacity="0.75"/>
    <circle cx="45" cy="0" r="5" fill="#F59E0B"/>
    <path d="M62 0H1024" stroke="#BAE6FD" stroke-opacity="0.16"/>
  </g>
</svg>
